<?xml version="1.0" encoding="utf-8"?>
<!-- Generator: Adobe Illustrator 21.0.0, SVG Export Plug-In . SVG Version: 6.00 Build 0)  -->
<svg version="1.1" id="Logo" xmlns="http://www.w3.org/2000/svg" xmlns:xlink="http://www.w3.org/1999/xlink" x="0px" y="0px"
	 viewBox="0 0 1210 410" style="enable-background:new 0 0 1210 410;" xml:space="preserve">
<style type="text/css">
	.st0{fill:#6B717B;}
	.st1{fill:#5387C6;}
</style>
<path id="O" class="st0" d="M1151.9,53.8c-33.1-32-73.3-48.2-119.3-48.2c-46.6,0-86.9,16.4-119.8,48.7
	c-33,32.6-49.8,72.7-49.8,119.1c0,45.2,17.2,84.6,51.1,116.9c33.4,31.7,73.2,47.8,118.4,47.8c45.9,0,86-16.2,119.1-48.2
	c33.7-32.5,50.8-72.2,50.8-118.1S1185.5,86.1,1151.9,53.8z M1032.6,295.7c-33.4,0-62.8-12.1-87.3-36.1c-24.7-24-37.2-53.1-37.2-86.4
	c0-34.3,12.2-64.1,36.3-88.7c24.1-24.6,53.8-37,88.2-37c34,0,63.6,12.3,88,36.7c24.4,24.3,36.8,53.9,36.8,87.8s-12.4,63.3-37,87.4
	S1066.4,295.7,1032.6,295.7z"/>
<polygon id="L" class="st0" points="733.4,7.6 688,7.6 688,335.7 863.1,335.7 863.1,293.3 733.4,293.3 "/>
<path id="B" class="st0" d="M608.5,159.8c8-7.3,14.2-14.6,18.4-21.9c6.7-11.4,10.1-24.7,10.1-39.6c0-12-2.3-23.9-7-35
	c-8.4-19.9-22.8-34.8-42.8-44c-16.5-7.7-36.6-11.6-59.9-11.6h-85.9v328h93.5c17.1,0,30.9-1,41.1-3c13.9-2.6,27.3-7.9,39.3-15.4l0,0
	c26.2-16.5,39.5-42.9,39.5-78.4C654.8,202.4,639.2,175.9,608.5,159.8z M569.7,135c-6.5,3.4-14.6,5.8-24,7c-4.2,0.6-8.5,0.9-12.7,1
	l-46.2,0.2V50.2h34.8c6.3,0,11.9,0.1,16.4,0.4c5.5,0.4,10.9,1.3,16.2,2.5c11.3,2.5,20,7.3,25.9,14.1l0,0
	c7.4,8.1,11.4,18.8,11.3,29.8C591.5,114.9,584.4,127.3,569.7,135L569.7,135z M486.8,185.5h46.9c5.6,0.1,10.7,0.4,15.1,0.8
	c10.8,0.9,20.3,2.9,28,6c21.9,9,32.5,24.2,32.5,46.5c0,23.5-9.4,38.8-28.9,47c-8.6,3.5-17.6,5.7-26.8,6.5l-14.8,0.8l-52,0.2V185.5z"
	/>
<rect id="I" x="346.5" y="7.6" class="st0" width="45.5" height="328"/>
<path id="V" class="st1" d="M144,333h48.4L328.2,5.3L279.6,5l-73.8,177.8h-76.2L56.1,5H7.5L144,333z M27,363.9h281.8V405H27V363.9z"
	/>
</svg>
